<svg xmlns="http://www.w3.org/2000/svg" xmlns:xlink="http://www.w3.org/1999/xlink" viewBox="0 0 173.59 144.24">
  <defs>
    <style>
      .cls-1 {
        fill: none;
      }

      .cls-2 {
        isolation: isolate;
      }

      .cls-25, .cls-3, .cls-7 {
        fill: #900057;
      }

      .cls-4 {
        fill: url(#Áåçûìÿííûé_ãðàäèåíò_400);
      }

      .cls-5 {
        fill: #b69bd3;
        opacity: 0.51;
      }

      .cls-10, .cls-11, .cls-16, .cls-22, .cls-25, .cls-5, .cls-7, .cls-9 {
        mix-blend-mode: multiply;
      }

      .cls-6 {
        fill: url(#Áåçûìÿííûé_ãðàäèåíò_39);
      }

      .cls-7 {
        opacity: 0.46;
      }

      .cls-15, .cls-21, .cls-8 {
        mix-blend-mode: screen;
      }

      .cls-8 {
        fill: url(#Áåçûìÿííûé_ãðàäèåíò_206);
      }

      .cls-9 {
        opacity: 0.31;
        fill: url(#Áåçûìÿííûé_ãðàäèåíò_400-2);
      }

      .cls-10, .cls-11, .cls-22 {
        opacity: 0.63;
      }

      .cls-10 {
        fill: url(#Áåçûìÿííûé_ãðàäèåíò_89);
      }

      .cls-11 {
        fill: url(#Áåçûìÿííûé_ãðàäèåíò_89-2);
      }

      .cls-12 {
        clip-path: url(#clip-path);
      }

      .cls-13 {
        fill: url(#Áåçûìÿííûé_ãðàäèåíò_781);
      }

      .cls-14 {
        fill: url(#linear-gradient);
      }

      .cls-15, .cls-21 {
        opacity: 0.36;
      }

      .cls-15 {
        fill: url(#linear-gradient-2);
      }

      .cls-16 {
        fill: #8486ea;
        opacity: 0.29;
      }

      .cls-17 {
        fill: #fff;
      }

      .cls-18 {
        clip-path: url(#clip-path-2);
      }

      .cls-19 {
        fill: url(#Áåçûìÿííûé_ãðàäèåíò_781-2);
      }

      .cls-20 {
        fill: url(#linear-gradient-3);
      }

      .cls-21 {
        fill: url(#linear-gradient-4);
      }

      .cls-22 {
        fill: url(#Áåçûìÿííûé_ãðàäèåíò_89-3);
      }

      .cls-23 {
        fill: url(#Áåçûìÿííûé_ãðàäèåíò_267);
      }

      .cls-24 {
        fill: url(#Áåçûìÿííûé_ãðàäèåíò_267-2);
      }

      .cls-25 {
        opacity: 0.22;
      }
    </style>
    <linearGradient id="Áåçûìÿííûé_ãðàäèåíò_400" data-name="Áåçûìÿííûé ãðàäèåíò 400" x1="139.06" y1="133.41" x2="139.06" y2="10.9" gradientTransform="translate(0.01 0.65) rotate(-0.65)" gradientUnits="userSpaceOnUse">
      <stop offset="0" stop-color="#b69bd3"/>
      <stop offset="1" stop-color="#efe2eb"/>
    </linearGradient>
    <linearGradient id="Áåçûìÿííûé_ãðàäèåíò_39" data-name="Áåçûìÿííûé ãðàäèåíò 39" x1="31.87" y1="13.78" x2="149.6" y2="132.43" gradientTransform="translate(0.01 0.65) rotate(-0.65)" gradientUnits="userSpaceOnUse">
      <stop offset="0" stop-color="#f71579"/>
      <stop offset="1" stop-color="#900057"/>
    </linearGradient>
    <linearGradient id="Áåçûìÿííûé_ãðàäèåíò_206" data-name="Áåçûìÿííûé ãðàäèåíò 206" x1="66.69" y1="-14.38" x2="90.15" y2="56.81" gradientTransform="translate(0.01 0.65) rotate(-0.65)" gradientUnits="userSpaceOnUse">
      <stop offset="0" stop-color="#ffabb1"/>
      <stop offset="0.17" stop-color="#cc898d"/>
      <stop offset="0.48" stop-color="#764f52"/>
      <stop offset="0.72" stop-color="#362426"/>
      <stop offset="0.91" stop-color="#0f0a0a"/>
      <stop offset="1"/>
    </linearGradient>
    <linearGradient id="Áåçûìÿííûé_ãðàäèåíò_400-2" x1="34.02" y1="126.43" x2="139.06" y2="126.43" xlink:href="#Áåçûìÿííûé_ãðàäèåíò_400"/>
    <linearGradient id="Áåçûìÿííûé_ãðàäèåíò_89" data-name="Áåçûìÿííûé ãðàäèåíò 89" x1="66.63" y1="96.07" x2="66.63" y2="63.44" gradientTransform="translate(0.01 0.65) rotate(-0.65)" gradientUnits="userSpaceOnUse">
      <stop offset="0" stop-color="#fff"/>
      <stop offset="0.05" stop-color="#f5eef2"/>
      <stop offset="0.32" stop-color="#c29ab4"/>
      <stop offset="0.56" stop-color="#9a5883"/>
      <stop offset="0.76" stop-color="#7d2860"/>
      <stop offset="0.91" stop-color="#6c0b4a"/>
      <stop offset="1" stop-color="#650042"/>
    </linearGradient>
    <linearGradient id="Áåçûìÿííûé_ãðàäèåíò_89-2" x1="111.67" y1="95.51" x2="111.67" y2="60.19" xlink:href="#Áåçûìÿííûé_ãðàäèåíò_89"/>
    <clipPath id="clip-path">
      <path class="cls-1" d="M93.69,63.57s15.64-11.81,33.92-4.19c0,0,11.29,15.18-2.28,29.06S86.47,87,93.69,63.57Z"/>
    </clipPath>
    <linearGradient id="Áåçûìÿííûé_ãðàäèåíò_781" data-name="Áåçûìÿííûé ãðàäèåíò 781" x1="111.38" y1="92.06" x2="111.38" y2="51.76" gradientTransform="translate(0.01 0.65) rotate(-0.65)" gradientUnits="userSpaceOnUse">
      <stop offset="0" stop-color="#fff"/>
      <stop offset="0.24" stop-color="#daddee"/>
      <stop offset="0.58" stop-color="#abb1d8"/>
      <stop offset="0.85" stop-color="#8e95ca"/>
      <stop offset="1" stop-color="#838bc5"/>
    </linearGradient>
    <linearGradient id="linear-gradient" x1="229.77" y1="176.79" x2="229.77" y2="137.82" gradientTransform="matrix(-1.06, 0.18, 0.34, 0.89, 301.04, -109)" gradientUnits="userSpaceOnUse">
      <stop offset="0" stop-color="#006cff"/>
      <stop offset="0.05" stop-color="#0063eb"/>
      <stop offset="0.2" stop-color="#0049ae"/>
      <stop offset="0.35" stop-color="#003379"/>
      <stop offset="0.5" stop-color="#00214d"/>
      <stop offset="0.64" stop-color="#00122c"/>
      <stop offset="0.77" stop-color="#000814"/>
      <stop offset="0.9" stop-color="#000205"/>
      <stop offset="1"/>
    </linearGradient>
    <linearGradient id="linear-gradient-2" x1="318.69" y1="-384.22" x2="299.49" y2="-417.47" gradientTransform="matrix(-0.06, 1, 0.76, 0.04, 434.49, -201.37)" gradientUnits="userSpaceOnUse">
      <stop offset="0"/>
      <stop offset="0.1" stop-color="#222218"/>
      <stop offset="0.36" stop-color="#70704e"/>
      <stop offset="0.58" stop-color="#adad78"/>
      <stop offset="0.77" stop-color="#dada97"/>
      <stop offset="0.91" stop-color="#f5f5aa"/>
      <stop offset="1" stop-color="#ffffb1"/>
    </linearGradient>
    <clipPath id="clip-path-2">
      <path class="cls-1" d="M85.32,63.11s-30.68-10.8-36.79,3.52c0,0-4,17.51,10.6,25.06S93.6,90.84,85.32,63.11Z"/>
    </clipPath>
    <linearGradient id="Áåçûìÿííûé_ãðàäèåíò_781-2" x1="66.8" y1="92.13" x2="66.8" y2="51.15" xlink:href="#Áåçûìÿííûé_ãðàäèåíò_781"/>
    <linearGradient id="linear-gradient-3" x1="265.24" y1="168.12" x2="265.24" y2="129.14" xlink:href="#linear-gradient"/>
    <linearGradient id="linear-gradient-4" x1="321.42" y1="-434.46" x2="302.22" y2="-467.71" xlink:href="#linear-gradient-2"/>
    <linearGradient id="Áåçûìÿííûé_ãðàäèåíò_89-3" x1="90.63" y1="106.21" x2="90.63" y2="85.18" xlink:href="#Áåçûìÿííûé_ãðàäèåíò_89"/>
    <linearGradient id="Áåçûìÿííûé_ãðàäèåíò_267" data-name="Áåçûìÿííûé ãðàäèåíò 267" x1="5.2" y1="57.86" x2="22.72" y2="87.36" gradientTransform="translate(-15.58 40.58) rotate(-14.95)" gradientUnits="userSpaceOnUse">
      <stop offset="0" stop-color="#900057"/>
      <stop offset="1" stop-color="#f71579"/>
    </linearGradient>
    <linearGradient id="Áåçûìÿííûé_ãðàäèåíò_267-2" x1="155.79" y1="152.69" x2="155.79" y2="43.98" gradientTransform="translate(0.01 0.65) rotate(-0.65)" xlink:href="#Áåçûìÿííûé_ãðàäèåíò_267"/>
  </defs>
  <title>bookAsset 1</title>
  <g class="cls-2">
    <g id="Layer_2" data-name="Layer 2">
      <g id="Ñëîé_2" data-name="Ñëîé 2">
        <g>
          <g>
            <path class="cls-3" d="M135.35,12.34s12.63,3.6,21,4.41l2.54,3.37s-3.23,35.65-4.81,116.19c0,0-18.12,1.57-27,1.67S135.35,12.34,135.35,12.34Z"/>
            <path class="cls-4" d="M137.46,8.57s9.62,7.83,15.31,9.35c0,0-2.86,68.08-1.4,116.16,0,0-18.09,5.42-24.17,8.66Z"/>
            <path class="cls-5" d="M127.2,142.74c6.08-3.24,24.17-8.66,24.17-8.66-.79-26.18-.31-58.28.3-82.1-3.56,27-8.58,38.75-8.58,38.75l-.87-76.32,5.53,1.28a87.81,87.81,0,0,1-10.29-7.12Z"/>
            <path class="cls-6" d="M45.65,139.82S19.38,89.61,34.47,7.78c0,0,63.64-15.55,102.5-2.68l3.22,3.44s-1.06,86.43.47,131.78C140.66,140.32,94.68,149.47,45.65,139.82Z"/>
            <path class="cls-7" d="M158.92,20.12l-2.54-3.37c-3.17,46.68-3.75,119.69-3.75,119.69l1.48-.13C155.69,55.77,158.92,20.12,158.92,20.12Z"/>
            <path class="cls-7" d="M140.19,8.54,137,5.1S135,74.65,138.51,140.71c1.4-.24,2.15-.39,2.15-.39C139.13,95,140.19,8.54,140.19,8.54Z"/>
            <path class="cls-5" d="M150.11,23.94,148,126.73S145.86,73.24,150.11,23.94Z"/>
            <path class="cls-5" d="M145.38,42.16s1,33.87.39,56.92C145.77,99.08,144.68,82.18,145.38,42.16Z"/>
            <path class="cls-5" d="M141.65,76.5s.76,24.8-.18,40.6C141.47,117.1,141.11,91.37,141.65,76.5Z"/>
            <path class="cls-8" d="M137,5.1C98.11-7.77,34.47,7.78,34.47,7.78a271.51,271.51,0,0,0-4.56,56.94c16-10.44,51.42-28.71,106.61-32.1C136.68,15.73,137,5.1,137,5.1Z"/>
            <path class="cls-9" d="M140.66,140.32c-.15-4.66-.28-9.76-.39-15.15-58.46-3.4-90.76-11.89-105-16.74,4.58,20.28,10.39,31.39,10.39,31.39C94.68,149.47,140.66,140.32,140.66,140.32Z"/>
            <path class="cls-10" d="M85.32,63.11S95.85,92.9,71.54,95.74c-23.67,2.77-26.29-24.89-23-29.11s36,3.79,36,3.79Z"/>
            <path class="cls-11" d="M93.69,63.57S86.28,85.37,105.2,93.2s36.64-13.57,22.41-33.82L102.23,70.67Z"/>
            <g class="cls-12">
              <path class="cls-13" d="M93.69,63.57s15.64-11.81,33.92-4.19c0,0,11.29,15.18-2.28,29.06S86.47,87,93.69,63.57Z"/>
              <g>
                <g>
                  <path class="cls-14" d="M94.89,75.35c1.9,9.93,10.84,16.3,19.91,14.16s14.66-11.88,12.63-21.68S116.61,51.94,107.72,54,93,65.52,94.89,75.35Z"/>
                  <path class="cls-15" d="M124.7,93.15c1.23-11.24-9.46-21.89-21.6-17.65-5.37,1.88-9.69,9.5-6.71,19.4C97.42,98.32,122.69,111.43,124.7,93.15Z"/>
                </g>
                <path class="cls-16" d="M130.14,89.24S136.67,72,117.22,65.81C103.77,61.55,91.3,73,97.35,88.27c7.1,18-36.27-22.41-36.27-22.41s4.76-16.12,9.81-15.67,56.68-3.44,56.68-3.44,26.89,30.73,25,34.07S130.14,89.24,130.14,89.24Z"/>
                <path class="cls-17" d="M106.37,62.68c-3.28-5.25-10.09,7.52-6.55,8.49S111.29,70.54,106.37,62.68Z"/>
              </g>
            </g>
            <g class="cls-18">
              <path class="cls-19" d="M85.32,63.11S52.61,47,48.53,66.63c0,0-4,17.51,10.6,25.06S93.6,90.84,85.32,63.11Z"/>
              <g>
                <g>
                  <path class="cls-20" d="M54.4,74c1.89,9.92,10.83,16.29,19.91,14.15S89,76.3,86.93,66.49,76.12,50.6,67.22,52.61,52.52,64.18,54.4,74Z"/>
                  <path class="cls-21" d="M86.18,93.62C87.42,82.39,76.73,71.73,64.59,76c-5.37,1.87-9.69,9.5-6.71,19.39C58.9,98.79,84.17,111.9,86.18,93.62Z"/>
                </g>
                <path class="cls-16" d="M84.55,87.55s6.53-17.28-12.92-23.43c-13.45-4.26-25.92,7.15-19.87,22.46,7.1,18-36.27-22.41-36.27-22.41S20.25,48.05,25.3,48.5,82,45.06,82,45.06s26.89,30.73,25,34.07S84.55,87.55,84.55,87.55Z"/>
                <path class="cls-17" d="M65.75,64.89c-3.29-5.25-10.09,7.52-6.56,8.49S70.66,72.75,65.75,64.89Z"/>
              </g>
            </g>
            <g>
              <path d="M86.4,92.29s7.51,8.27,7.67-4.32c0,0,1.46,5.66-1.16,8.46S86.4,92.29,86.4,92.29Z"/>
              <path class="cls-22" d="M84.87,97.22s2.86,4.58,11.39,3.31S88.61,117.22,84.87,97.22Z"/>
            </g>
            <path d="M95.09,31.65s2.8-13,13.39.42C108.48,32.07,96.46,12.27,95.09,31.65Z"/>
            <path d="M84.12,31.08s-3.1-13-13.38.73C70.74,31.81,82.31,11.74,84.12,31.08Z"/>
          </g>
          <path class="cls-23" d="M32.22,92s-35,20.52-32,28.87,28.25-2.38,28.25-2.38-3.58,5.66,3.43,5.55c0,0,2.64,3.28,9.37-1S40,121,40,121s6.64-3.69-2.47-3.95c0,0,9.35-.62,3.28-4.87s-25.33-1.22-12.4,5.42c0,0-11.41,5.28-21.76,4S15.44,105,33.18,98Z"/>
          <path class="cls-24" d="M140,111.52s28.62-9.85,33.09-41.58S150.2,31.59,150.2,31.59s-2-3.65,4.92-10.45,3.73-15.73-.2-17.86-3.78,1.89-3.78,1.89S149,2.49,146.38,3.38s-.92,4.49,3.58,7.77c0,0-6.89-1.74-7.31,1.75s3.19,3.44,5.63,3.94a4.21,4.21,0,0,1,3,3.07s-11.89,3-2.84,12.88c0,0,23.77,4,22.83,32.71s-31.35,35.41-31.35,35.41Z"/>
          <path class="cls-25" d="M31.86,124s2.64,3.28,9.37-1S40,121,40,121c-8.57,3.53-11,3.39-11.24-.12s7.78-4.17,7.78-4.17-9.68.9-11.76-1.66a12.15,12.15,0,0,0,3.63,2.55s-1.08.5-2.88,1.16l-.06.94c1.83-.69,3-1.18,3-1.18S24.85,124.14,31.86,124Z"/>
          <path class="cls-25" d="M27.79,97.85c.13,1.5-1.68,3.09-3.52,4.3A89,89,0,0,1,33.18,98l-1-6s-3.9,2.29-9,5.64C25.67,96.93,27.68,96.71,27.79,97.85Z"/>
          <path class="cls-25" d="M152.88,95.49a48.7,48.7,0,0,1-12.94,5.42l.06,10.61a54.35,54.35,0,0,0,18.24-12C148.24,108.45,147.49,100.9,152.88,95.49Z"/>
          <path class="cls-25" d="M155.18,17a2.06,2.06,0,0,1-.1.4,2.92,2.92,0,0,0,.1-.4c.2-1.08.24-4-4.64-5.44,0,0,7.37,2.92,2,12.31h.1a27.45,27.45,0,0,1,2.48-2.78c6.91-6.8,3.73-15.73-.2-17.86s-3.78,1.89-3.78,1.89S156.71,11.34,155.18,17Z"/>
        </g>
      </g>
    </g>
  </g>
</svg>
