<svg xmlns="http://www.w3.org/2000/svg" xmlns:xlink="http://www.w3.org/1999/xlink" viewBox="0 0 830.67 480.97">
  <defs>
    <style>
      .cls-1 {
        fill: url(#radial-gradient);
      }

      .cls-2 {
        fill: url(#radial-gradient-2);
      }

      .cls-3 {
        fill: #5a3a1c;
      }
    </style>
    <radialGradient id="radial-gradient" cx="414.36" cy="158.19" r="495.45" gradientTransform="translate(-5.61 224.02) rotate(-21.81) scale(1 0.6)" gradientUnits="userSpaceOnUse">
      <stop offset="0" stop-color="#fff"/>
      <stop offset="0.52" stop-color="#fdfdfe"/>
      <stop offset="0.71" stop-color="#f6f8f9"/>
      <stop offset="0.84" stop-color="#ebedf0"/>
      <stop offset="0.95" stop-color="#dadfe4"/>
      <stop offset="1" stop-color="#ced5db"/>
    </radialGradient>
    <radialGradient id="radial-gradient-2" cx="727.75" cy="425.19" r="761.75" gradientTransform="translate(1366.39 868.08) rotate(-165.8) scale(1 0.64)" gradientUnits="userSpaceOnUse">
      <stop offset="0.01" stop-color="#fff"/>
      <stop offset="0.52" stop-color="#fdfdfe"/>
      <stop offset="0.71" stop-color="#f6f8f9"/>
      <stop offset="0.84" stop-color="#ebedf0"/>
      <stop offset="0.95" stop-color="#dadfe4"/>
      <stop offset="1" stop-color="#ced5db"/>
    </radialGradient>
  </defs>
  <title>cloudAsset 2</title>
  <g id="Layer_2" data-name="Layer 2">
    <g id="Layer_1-2" data-name="Layer 1">
      <g>
        <g>
          <path class="cls-1" d="M830.67,273.07a74.92,74.92,0,0,1-113.08,64.46c0,.88.07,1.72.07,2.59a104.39,104.39,0,0,1-190.41,59.14A78.88,78.88,0,0,1,411.1,430.54,115.31,115.31,0,0,1,203.37,391.4a148.89,148.89,0,1,1-16.49-282.62A162.21,162.21,0,0,1,475,72.2a68.51,68.51,0,0,1,100,29.38,117.29,117.29,0,0,1,168.15,97.67,75.79,75.79,0,0,1,12.6-1.08A74.91,74.91,0,0,1,830.67,273.07Z"/>
          <path class="cls-2" d="M826.56,276.9c0,40.16-32.89,72.69-73.43,72.69a73.53,73.53,0,0,1-37.4-10.14c0,.85.07,1.67.07,2.51,0,55.94-45.81,101.27-102.32,101.27a102.46,102.46,0,0,1-84.3-43.89,77.75,77.75,0,0,1-113.85,30.34,113.2,113.2,0,0,1-93.43,48.93c-53.75,0-98.69-37.15-110.16-86.9a146.73,146.73,0,0,1-53.37,10c-80.61,0-146-64.69-146-144.48s65.34-144.48,146-144.48a147.71,147.71,0,0,1,37.21,4.75C217.22,56.06,276.23,12,345.67,12A159.2,159.2,0,0,1,477.94,82a67.5,67.5,0,0,1,98,28.5,115.28,115.28,0,0,1,50.16-11.38C687,99.15,736.79,146,740.78,205.29a73.86,73.86,0,0,1,12.35-1C793.67,204.24,826.56,236.77,826.56,276.9Z"/>
        </g>
        <g>
          <path class="cls-3" d="M225.88,187.33c-18.1.4-32.34,20.28-31.81,44.39s15.64,43.35,33.74,43,32.35-20.28,31.81-44.4S244,186.93,225.88,187.33Zm-15.77,35.89c-8.82,1.14-10.57-12.54-1.77-13.68S218.91,222.09,210.11,223.22Z"/>
          <path class="cls-3" d="M446.85,235.42c2.28-22.41-10.45-42.06-28.43-43.89S384,206.4,381.75,228.82s10.46,42.06,28.44,43.88S444.58,257.83,446.85,235.42Zm-14.31-10.06c-8.77-1.34-6.68-15,2.08-13.61S441.3,226.69,432.54,225.36Z"/>
          <path class="cls-3" d="M300.62,279.33c1,9.06,7.28,15.62,15.87,18.25,8,2.46,17.25,1.19,23.73-4.28,4-3.4,5.92-8.29,6.51-13.4.32-2.7-2.54-5-5-5-3,0-4.73,2.32-5,5,.12-1,0-.2-.07.3s-.18.8-.29,1.2a9.93,9.93,0,0,0-.37,1.13c-.09.51.17-.39.2-.43-.1.19-.18.4-.28.59-.35.67-.76,1.27-1.14,1.91s.68-.71-.08.08c-.29.29-.56.6-.85.89s-.56.45-.8.71c.56-.6.53-.39-.09,0A15,15,0,0,1,331,287.4c-.65.32-.9.32-.07.06-.35.11-.68.26-1,.38a20.18,20.18,0,0,1-2.28.61c-.2,0-1.47.28-.59.12s-.23,0-.44,0c-.81.07-1.61.1-2.42.09s-1.51-.12-2.26-.15c.9,0,.62.1-.11,0l-1.11-.23a20.62,20.62,0,0,1-2.17-.62c-.36-.12-.7-.28-1.06-.38-.52-.16.47.2.47.2-.23-.12-.48-.22-.72-.34a20.15,20.15,0,0,1-1.93-1.07l-.78-.53c-1-.65.64.6-.2-.17-.61-.55-1.19-1.12-1.75-1.73-.77-.85.46.75-.15-.2-.22-.35-.45-.68-.65-1s-.36-.76-.57-1.11.2.48.2.48c-.06-.24-.18-.49-.27-.74-.13-.41-.24-.82-.34-1.24,0-.16-.06-.33-.1-.48-.31-1.1.11,1.16,0,0-.3-2.7-2.1-5-5-5-2.49,0-5.34,2.31-5,5Z"/>
        </g>
      </g>
    </g>
  </g>
</svg>
