<svg xmlns="http://www.w3.org/2000/svg" xmlns:xlink="http://www.w3.org/1999/xlink" viewBox="0 0 473.8 653.02">
  <defs>
    <style>
      .cls-1 {
        isolation: isolate;
      }

      .cls-2 {
        fill: url(#Безымянный_градиент_5);
      }

      .cls-3 {
        fill: url(#Безымянный_градиент_34);
      }

      .cls-4 {
        fill: url(#Безымянный_градиент_4);
      }

      .cls-5 {
        fill: url(#Безымянный_градиент_2);
      }

      .cls-6 {
        fill: url(#Безымянный_градиент_4-2);
      }

      .cls-7 {
        fill: url(#Безымянный_градиент_2-2);
      }

      .cls-25, .cls-8, .cls-9 {
        fill: #fff;
      }

      .cls-22, .cls-24, .cls-9 {
        opacity: 0.5;
      }

      .cls-25, .cls-9 {
        mix-blend-mode: soft-light;
      }

      .cls-10 {
        fill: url(#Безымянный_градиент_34-2);
      }

      .cls-11 {
        fill: url(#Безымянный_градиент_167);
      }

      .cls-12 {
        fill: url(#Безымянный_градиент_111);
      }

      .cls-13 {
        fill: #d84f95;
        opacity: 0.8;
      }

      .cls-13, .cls-22 {
        mix-blend-mode: multiply;
      }

      .cls-14 {
        fill: url(#Безымянный_градиент_64);
      }

      .cls-15 {
        fill: #60082a;
      }

      .cls-16, .cls-18, .cls-24 {
        mix-blend-mode: screen;
      }

      .cls-16 {
        fill: url(#Безымянный_градиент_53);
      }

      .cls-17 {
        fill: url(#Безымянный_градиент_64-2);
      }

      .cls-18 {
        fill: url(#Безымянный_градиент_53-2);
      }

      .cls-19 {
        fill: url(#Безымянный_градиент_65);
      }

      .cls-20 {
        fill: url(#Безымянный_градиент_75);
      }

      .cls-21 {
        fill: url(#Безымянный_градиент_75-2);
      }

      .cls-23 {
        fill: #ffa2eb;
      }

      .cls-24 {
        fill: url(#Безымянный_градиент_182);
      }
    </style>
    <radialGradient id="Безымянный_градиент_5" data-name="Безымянный градиент 5" cx="239.22" cy="562.94" r="82.02" gradientUnits="userSpaceOnUse">
      <stop offset="0.03" stop-color="#ffd4b6"/>
      <stop offset="0.24" stop-color="#f6cdb3"/>
      <stop offset="0.59" stop-color="#ddbaaa"/>
      <stop offset="1" stop-color="#b79c9d"/>
    </radialGradient>
    <linearGradient id="Безымянный_градиент_34" data-name="Безымянный градиент 34" x1="184.9" y1="639.78" x2="290.3" y2="639.78" gradientUnits="userSpaceOnUse">
      <stop offset="0" stop-color="#4a222e"/>
      <stop offset="0.24" stop-color="#531d30"/>
      <stop offset="0.63" stop-color="#6a1035"/>
      <stop offset="1" stop-color="#86003c"/>
    </linearGradient>
    <radialGradient id="Безымянный_градиент_4" data-name="Безымянный градиент 4" cx="239.75" cy="555.03" r="69.11" gradientUnits="userSpaceOnUse">
      <stop offset="0.03" stop-color="#ffefd7"/>
      <stop offset="0.3" stop-color="#f6e6d2"/>
      <stop offset="0.73" stop-color="#dfcdc5"/>
      <stop offset="1" stop-color="#cdbabb"/>
    </radialGradient>
    <radialGradient id="Безымянный_градиент_2" data-name="Безымянный градиент 2" cx="239.75" cy="559.75" r="69.97" gradientUnits="userSpaceOnUse">
      <stop offset="0.03" stop-color="#dbc2ae"/>
      <stop offset="0.23" stop-color="#d3b9a7"/>
      <stop offset="0.56" stop-color="#bca096"/>
      <stop offset="0.97" stop-color="#987879"/>
      <stop offset="1" stop-color="#957577"/>
    </radialGradient>
    <radialGradient id="Безымянный_градиент_4-2" cx="260.85" cy="595.4" r="69.1" gradientTransform="translate(-11.02) scale(0.96 1)" xlink:href="#Безымянный_градиент_4"/>
    <radialGradient id="Безымянный_градиент_2-2" cx="260.85" cy="600.12" r="69.96" gradientTransform="translate(-11.02) scale(0.96 1)" xlink:href="#Безымянный_градиент_2"/>
    <linearGradient id="Безымянный_градиент_34-2" x1="162.63" y1="545.84" x2="314.58" y2="545.84" xlink:href="#Безымянный_градиент_34"/>
    <radialGradient id="Безымянный_градиент_167" data-name="Безымянный градиент 167" cx="275.12" cy="532.64" r="126.95" gradientTransform="translate(-8.63 255.64) scale(0.94 0.52)" gradientUnits="userSpaceOnUse">
      <stop offset="0.03" stop-color="#ffd600"/>
      <stop offset="0.22" stop-color="#ffcd00"/>
      <stop offset="0.52" stop-color="#ffb400"/>
      <stop offset="0.9" stop-color="#ff8c00"/>
      <stop offset="1" stop-color="#ff8100"/>
    </radialGradient>
    <radialGradient id="Безымянный_градиент_111" data-name="Безымянный градиент 111" cx="242.98" cy="145.76" r="300.3" gradientTransform="translate(236.9 -98.13) rotate(45)" gradientUnits="userSpaceOnUse">
      <stop offset="0.03" stop-color="#ffd600"/>
      <stop offset="0.19" stop-color="#ffcd00"/>
      <stop offset="0.45" stop-color="#ffb400"/>
      <stop offset="0.78" stop-color="#ff8c00"/>
      <stop offset="0.86" stop-color="#ff8100"/>
      <stop offset="1" stop-color="#f90"/>
    </radialGradient>
    <linearGradient id="Безымянный_градиент_64" data-name="Безымянный градиент 64" x1="349.28" y1="256.01" x2="437.81" y2="256.01" gradientUnits="userSpaceOnUse">
      <stop offset="0.01" stop-color="#ffc5cb"/>
      <stop offset="0.08" stop-color="#ffcccf"/>
      <stop offset="0.33" stop-color="#ffdcd8"/>
      <stop offset="0.62" stop-color="#ffe5dd"/>
      <stop offset="1" stop-color="#ffe8df"/>
    </linearGradient>
    <radialGradient id="Безымянный_градиент_53" data-name="Безымянный градиент 53" cx="-619.41" cy="518.79" r="5.44" gradientTransform="matrix(2.22, -1.36, 2.77, 4.51, 353.59, -2940.44)" gradientUnits="userSpaceOnUse">
      <stop offset="0.01" stop-color="#955e7c"/>
      <stop offset="0.41" stop-color="#935d7a"/>
      <stop offset="0.56" stop-color="#8c5975"/>
      <stop offset="0.66" stop-color="#81516b"/>
      <stop offset="0.75" stop-color="#70465d"/>
      <stop offset="0.82" stop-color="#5a394b"/>
      <stop offset="0.88" stop-color="#3e2734"/>
      <stop offset="0.94" stop-color="#1f141a"/>
      <stop offset="0.99"/>
    </radialGradient>
    <linearGradient id="Безымянный_градиент_64-2" x1="-387.37" y1="256.01" x2="-298.84" y2="256.01" gradientTransform="matrix(-1, 0, 0, 1, -267.59, 0)" xlink:href="#Безымянный_градиент_64"/>
    <radialGradient id="Безымянный_градиент_53-2" cx="-860.19" cy="446.03" r="5.44" gradientTransform="matrix(-2.22, -1.36, -2.77, 4.51, -621.18, -2940.44)" xlink:href="#Безымянный_градиент_53"/>
    <linearGradient id="Безымянный_градиент_65" data-name="Безымянный градиент 65" x1="241.59" y1="323.17" x2="241.59" y2="304.78" gradientUnits="userSpaceOnUse">
      <stop offset="0" stop-color="#e32a04"/>
      <stop offset="0.14" stop-color="#da2806"/>
      <stop offset="0.36" stop-color="#c3220d"/>
      <stop offset="0.64" stop-color="#9d1818"/>
      <stop offset="0.95" stop-color="#680a28"/>
      <stop offset="1" stop-color="#60082a"/>
    </linearGradient>
    <linearGradient id="Безымянный_градиент_75" data-name="Безымянный градиент 75" x1="103.41" y1="116.99" x2="103.41" y2="85.16" gradientUnits="userSpaceOnUse">
      <stop offset="0" stop-color="#e32a04"/>
      <stop offset="0.34" stop-color="#df2f0d"/>
      <stop offset="0.88" stop-color="#d53c24"/>
      <stop offset="1" stop-color="#d2402a"/>
    </linearGradient>
    <linearGradient id="Безымянный_градиент_75-2" x1="348.9" y1="108.14" x2="348.9" y2="83.16" xlink:href="#Безымянный_градиент_75"/>
    <radialGradient id="Безымянный_градиент_182" data-name="Безымянный градиент 182" cx="-828.96" cy="377.16" r="15.34" gradientTransform="matrix(2.56, 3.62, -4.32, 3.06, 3924.65, 1943.21)" gradientUnits="userSpaceOnUse">
      <stop offset="0.01" stop-color="#ffd75b"/>
      <stop offset="0.37" stop-color="#fdd55a"/>
      <stop offset="0.5" stop-color="#f6d058"/>
      <stop offset="0.6" stop-color="#ebc654"/>
      <stop offset="0.67" stop-color="#dab74e"/>
      <stop offset="0.74" stop-color="#c4a546"/>
      <stop offset="0.79" stop-color="#a88e3c"/>
      <stop offset="0.85" stop-color="#887331"/>
      <stop offset="0.89" stop-color="#625323"/>
      <stop offset="0.94" stop-color="#372e14"/>
      <stop offset="0.98" stop-color="#090803"/>
      <stop offset="0.99"/>
    </radialGradient>
  </defs>
  <title>lightBulpAsset 1</title>
  <g class="cls-1">
    <g id="Layer_2" data-name="Layer 2">
      <g id="Layer_1-2" data-name="Layer 1">
        <g>
          <path class="cls-2" d="M162.63,543.72s85,16.51,152,0l-6.25,80.17s-51.46,20.94-138.26-.71Z"/>
          <path class="cls-3" d="M184.9,626.55S209.32,653,238.61,653s51.69-24.2,51.69-24.2S236,639.2,184.9,626.55Z"/>
          <path class="cls-4" d="M164.94,568.38l-9.34,11.36s104.82,9,167-28L314.25,548S251.11,577.88,164.94,568.38Z"/>
          <path class="cls-5" d="M313,564.35l9.59-12.59s-56.44,34.62-167,28l11.21,8.61S237.46,594.48,313,564.35Z"/>
          <path class="cls-6" d="M168.15,608.75l-9,11.37s101,9,160.79-28l-8-3.78S251.14,618.25,168.15,608.75Z"/>
          <path class="cls-7" d="M310.72,604.72,320,592.13s-54.36,34.63-160.79,28L170,628.73S238,634.85,310.72,604.72Z"/>
          <path class="cls-8" d="M207.78,615.08c-11.47,5.22,37.35,4.27,52.41-3.68S225,607.25,207.78,615.08Z"/>
          <path class="cls-8" d="M216,571.21c-21.55,10,9.6,9,30.35,2.49S226.16,566.46,216,571.21Z"/>
          <path class="cls-8" d="M252.86,573.79c-5.11.18,6.14-3.21,9.52-3.12S262.82,573.43,252.86,573.79Z"/>
          <path class="cls-9" d="M260.42,586.15c-16.9,21.83,16.54,14.76,32.2,8.18s18.26-18.11,9.6-20.54S266.8,577.91,260.42,586.15Z"/>
          <path class="cls-9" d="M264.51,629.24c-6.58-5.74,22.24-15.35,34.69-17.84s4.8,14.15-11.92,17.84S264.51,629.24,264.51,629.24Z"/>
          <path class="cls-10" d="M162.63,543.72s110.58-15.38,152,0C314.58,543.72,228.87,568.62,162.63,543.72Z"/>
          <path class="cls-11" d="M236.45,472.45,97.61,422.62v5.86C187.93,484,177,520,184.48,537.11s52,13.7,52,13.7,44.51,3.39,52-13.7S285,484,375.29,428.48v-5.86Z"/>
          <g>
            <circle class="cls-12" cx="236.9" cy="236.9" r="236.9" transform="translate(-98.13 236.9) rotate(-45)"/>
            <path class="cls-8" d="M373.63,53.45c-13.16.35,20.76,31.4,31.9,33.42S392.87,53,373.63,53.45Z"/>
            <path class="cls-8" d="M79.6,392.5c-13.12,1.17,22,30.56,33.18,32.15S121.6,388.78,79.6,392.5Z"/>
            <g>
              <circle class="cls-13" cx="396.52" cy="261.2" r="49.46" transform="translate(-68.55 356.89) rotate(-45)"/>
              <path class="cls-14" d="M437.81,256a44.27,44.27,0,1,1-44.27-44.27A44.27,44.27,0,0,1,437.81,256Z"/>
              <path class="cls-15" d="M431.33,254.42a41,41,0,1,1-41-41A41,41,0,0,1,431.33,254.42Z"/>
              <path class="cls-16" d="M425,237.57c8.33,13.57,9.65,27.89,3,32s-18.85-3.57-27.17-17.14-9.65-27.89-3-32S416.65,224,425,237.57Z"/>
              <path class="cls-8" d="M363.21,270.69c-8.79.78,9.59,20.64,17.11,21.71S391.38,268.2,363.21,270.69Z"/>
            </g>
            <g>
              <circle class="cls-13" cx="72.53" cy="261.2" r="49.46" transform="translate(-196.6 228.77) rotate(-67.61)"/>
              <path class="cls-17" d="M31.25,256a44.27,44.27,0,1,0,44.26-44.27A44.27,44.27,0,0,0,31.25,256Z"/>
              <path class="cls-15" d="M37.73,254.42a41,41,0,1,0,41-41A41,41,0,0,0,37.73,254.42Z"/>
              <path class="cls-18" d="M44.08,237.57c-8.32,13.57-9.65,27.89-3,32S60,266,68.29,252.42s9.65-27.89,3-32S52.41,224,44.08,237.57Z"/>
              <path class="cls-8" d="M105.84,270.69c8.8.78-9.59,20.64-17.11,21.71S77.67,268.2,105.84,270.69Z"/>
            </g>
            <path class="cls-9" d="M44,359.79c-4.55,5.07,69.37,101.78,199,106.34,97.79,3.43,144.31-57.22,148.86-68.87S364,460.56,229.33,450.43C87.47,439.76,47.72,355.66,44,359.79Z"/>
            <path class="cls-19" d="M311,304.78s-25.58,18.39-69.42,18.39c-49.55,0-69.42-18.39-69.42-18.39S236.9,337.52,311,304.78Z"/>
            <path class="cls-20" d="M77.25,117S92,76.24,129.58,87Z"/>
            <path class="cls-21" d="M326.23,83.92s34.08-7.43,45.35,24.22Z"/>
            <g class="cls-22">
              <path class="cls-23" d="M256.25,401.34a8.59,8.59,0,1,1-8.59-8.59A8.58,8.58,0,0,1,256.25,401.34Z"/>
              <circle class="cls-23" cx="142.83" cy="44.18" r="12.44"/>
              <path class="cls-23" d="M267.74,44.22a4.3,4.3,0,1,1-4.29-4.29A4.3,4.3,0,0,1,267.74,44.22Z"/>
              <path class="cls-23" d="M298.61,35.59A8.59,8.59,0,1,1,290,27,8.6,8.6,0,0,1,298.61,35.59Z"/>
              <path class="cls-23" d="M191.82,151.62a8.59,8.59,0,1,1-8.59-8.58A8.6,8.6,0,0,1,191.82,151.62Z"/>
              <path class="cls-23" d="M214.53,401.34a20,20,0,1,1-20-20A20,20,0,0,1,214.53,401.34Z"/>
              <circle class="cls-23" cx="294.77" cy="79.41" r="16.24"/>
              <circle class="cls-23" cx="413.45" cy="185.41" r="19.98"/>
              <circle class="cls-23" cx="32.17" cy="219.02" r="11.63"/>
              <path class="cls-23" d="M245.79,356.5a6.71,6.71,0,1,1-6.71-6.71A6.71,6.71,0,0,1,245.79,356.5Z"/>
            </g>
            <path class="cls-24" d="M209.25,151.21c-36.61,25.93-83.9,22.06-105.63-8.62S94,66,130.56,40.09,214.46,18,236.19,48.71,245.86,125.29,209.25,151.21Z"/>
            <path class="cls-25" d="M186.26,314s17.28,18.8,55.33,20,57.7-22.8,57.7-22.8S249.89,340.63,186.26,314Z"/>
          </g>
        </g>
      </g>
    </g>
  </g>
</svg>
