<?xml version="1.0" encoding="utf-8"?>
<!-- Generator: Adobe Illustrator 23.0.6, SVG Export Plug-In . SVG Version: 6.00 Build 0)  -->
<svg version="1.1" id="Layer_1" xmlns="http://www.w3.org/2000/svg" xmlns:xlink="http://www.w3.org/1999/xlink" x="0px" y="0px"
	 viewBox="0 0 512 512" style="enable-background:new 0 0 512 512;" xml:space="preserve">
<style type="text/css">
	.st0{fill:#3DB7B3;}
	.st1{fill:#7970AF;}
	.st2{fill:#AD5988;}
</style>
<title>logoAsset 1</title>
<g>
	<g id="Layer_1-2">
		<g id="header">
			<g id="logo">
				<path class="st0" d="M507.8,245L265.3,4.2c-5.6-5.6-14.7-5.6-20.3,0L4.2,246.7c-5.6,5.6-5.6,14.7,0,20.3l28.7,28.6
					c8.1,8.1,21.3,8.1,29.4,0l168.4-168.5c8.1-8.1,21.3-8.2,29.5,0c0,0,0,0,0,0l125.1,125.1c8.1,8.1,8.1,21.3,0,29.4L217.6,449.5
					c-8.2,8.1-8.2,21.4,0,29.5c0,0,0,0,0,0l29.1,28.8c5.6,5.6,14.7,5.6,20.3,0l240.8-242.5C513.4,259.7,513.4,250.6,507.8,245z"/>
				<path class="st1" d="M275.1,174.9l-54.3,54.3c-1,1-2.6,1-3.6,0.1c0,0,0,0-0.1-0.1l-32.8-32.9c-1.2-1.1-1.2-3-0.1-4.2
					c0,0,0.1-0.1,0.1-0.1l54-53.8c4.7-4.7,12.3-4.7,17-0.1c0,0,0,0,0.1,0.1l19.6,19.6C279.8,162.5,279.9,170.1,275.1,174.9
					C275.2,174.9,275.1,174.9,275.1,174.9z"/>
				<path class="st2" d="M325,224.3L219.6,329.6c-1.9,1.9-5.1,2-7,0c0,0,0,0,0,0l-29.7-29.9c-1.9-2-1.9-5.1,0-7l105.4-105
					c5.4-5.5,14.3-5.5,19.7,0c0,0,0,0,0,0l17.1,17.1C330.4,210.3,330.3,218.9,325,224.3z"/>
				<path class="st1" d="M373,274.7L213.9,433.8c-1.6,1.7-4.3,1.7-6,0.1c0,0-0.1-0.1-0.1-0.1l-30.6-30.6c-1.7-1.6-1.7-4.3-0.1-6
					c0,0,0,0,0.1-0.1l159.1-159.1c5.2-5.2,13.7-5.2,18.9,0l17.8,17.8C378.2,260.9,378.2,269.4,373,274.7z"/>
				<path class="st2" d="M206.5,342.7L102.1,447.2c-5.5,5.5-14.4,5.5-19.9,0c0,0,0,0,0,0l-16.8-16.8c-5.5-5.5-5.5-14.4,0-19.9
					c0,0,0,0,0,0L169.8,306c2.4-2.3,6.1-2.3,8.5,0l28,28C208.8,336.4,208.9,340.3,206.5,342.7z"/>
				<path class="st1" d="M203.8,443.8l-29.9,29.9c-5.5,5.6-14.5,5.7-20.2,0.2c-0.1-0.1-0.1-0.1-0.2-0.2l-16.5-16.5
					c-5.6-5.6-5.6-14.6,0-20.2c0,0,0,0,0,0l29.9-29.9c1.6-1.5,4.2-1.5,5.8,0l30.9,30.8C205.3,439.5,205.3,442.1,203.8,443.8z"/>
				<path class="st1" d="M212.2,237.9l-85,84.9c-5,5-13.1,5-18.1,0l-18.6-18.6c-5-5-5-13.1,0-18.1l84.9-84.9c0.7-0.7,1.8-0.7,2.5,0
					c0,0,0,0,0,0l34.1,34.1C212.8,235.9,212.9,237,212.2,237.9C212.2,237.8,212.2,237.8,212.2,237.9z"/>
			</g>
		</g>
	</g>
</g>
</svg>
